<svg width="83" height="99" viewBox="0 0 83 99" fill="none" xmlns="http://www.w3.org/2000/svg">
<g clip-path="url(#clip0_5_5)">
<path d="M36.4171 80.1371C34.9555 81.7295 33.5738 83.2422 32.1783 84.7466C28.1394 89.1407 23.4093 92.849 18.1741 95.7256C15.1123 97.4222 11.6511 98.2711 8.14941 98.1844C4.49254 98.1101 1.60234 95.8466 0.667437 92.2411C-0.763874 86.7405 0.234448 81.4765 2.44898 76.35C5.89902 68.3578 11.8998 60.102 17.5478 53.5591C17.5478 53.5591 17.1699 52.7378 16.9358 52.2275C13.4141 44.8018 9.98059 37.3266 6.47816 29.8844C6.23476 29.371 5.67255 28.3311 5.67255 28.3311C5.67255 28.3311 6.5899 27.692 7.20623 27.2771C9.81789 25.5142 12.3358 23.6165 14.9281 21.7491L24.1917 45.5773L33.7668 36.3887L22.548 26.6858L22.8403 26.2925C24.7929 27.7584 26.7565 29.2105 28.6924 30.6929C30.6808 32.2221 32.6417 33.787 34.6962 35.4014C44.663 25.0384 55.0186 15.253 65.6638 5.7728L65.9231 6.03406L36.1799 36.804L50.6282 49.9503C60.1344 34.095 67.5419 17.3927 74.0697 0L77.8396 2.85477C79.2185 3.90537 80.5974 4.98621 82.0094 6.00381C82.4171 6.29725 83 6.7169 83 6.7169C83 6.7169 82.6069 7.49764 82.4452 7.86299C76.9317 20.2715 70.5509 32.2785 63.35 43.7952C61.0252 47.5163 58.7472 51.2676 56.37 55.1317C57.5227 56.2318 58.659 57.332 59.831 58.4101C64.1801 62.3815 68.2093 66.6609 71.4332 71.5811C75.3631 77.5932 76.6427 84.1168 74.4668 91.0777C74.0009 92.556 73.2355 93.9231 72.218 95.0943C71.2005 96.2655 69.9526 97.2158 68.5517 97.8862C67.1508 98.5567 65.6267 98.933 64.0739 98.9918C62.5212 99.0507 60.9728 98.7908 59.5249 98.2284C52.3766 95.5166 46.6073 90.8027 41.2957 85.4919C39.6162 83.817 38.0994 81.9881 36.4171 80.1371ZM41.5549 74.6366C45.4435 79.4166 49.1914 84.1553 54.354 87.5298C56.734 89.081 59.2326 89.9803 62.098 89.9336C66.0885 89.8648 68.4409 87.5408 68.3582 83.5667C68.281 80.4562 67.5998 77.4419 66.094 74.7301C63.8106 70.6185 61.4057 66.5618 58.8796 62.5987C57.6137 60.6185 55.937 58.8969 54.3126 56.9002L41.5549 74.6366ZM20.2673 57.1147C15.7086 63.1653 11.947 69.4716 9.64417 76.5316C9.0926 78.2367 8.9409 80.1234 8.89677 81.9331C8.80577 85.6157 11.4423 88.1322 15.146 88.0469C18.029 88.0227 20.7928 86.8965 22.8679 84.9006C24.6605 83.2009 26.3924 81.4325 28.0747 79.6201C29.5308 78.0497 30.8822 76.3803 32.2583 74.7769C32.046 74.4056 31.9274 74.1581 31.7729 73.9325C27.9865 68.3852 24.1917 62.838 20.2783 57.1147H20.2673ZM35.6725 38.0306C35.3919 38.2103 35.1279 38.4146 34.8837 38.6412C32.2197 42.024 29.1157 46.2114 26.5233 49.6355C26.5233 49.6355 26.7844 50.2988 26.8999 50.5333C28.6483 54.0564 30.4106 57.5767 32.3218 61.0173C33.8386 63.7511 35.5677 66.3666 37.4761 69.4854C41.3895 63.9574 45.5369 57.4796 49.2517 52.3201C44.9606 48.0242 40.0023 42.3843 35.6835 38.0306H35.6725Z" fill="white"/>
</g>
<defs>
<clipPath id="clip0_5_5">
<rect width="83" height="99" fill="white"/>
</clipPath>
</defs>
</svg>
