<svg preserveAspectRatio="none" width="100%" height="100%" overflow="visible" style="display: block;" viewBox="0 0 360 99" fill="none" xmlns="http://www.w3.org/2000/svg">
<g id="Vector">
<path d="M36.4171 80.1371C34.9555 81.7295 33.5738 83.2422 32.1783 84.7466C28.1394 89.1407 23.4093 92.849 18.1741 95.7256C15.1123 97.4222 11.6511 98.2711 8.14941 98.1844C4.49254 98.1101 1.60234 95.8466 0.667437 92.2411C-0.763874 86.7405 0.234448 81.4765 2.44898 76.35C5.89902 68.3578 11.8998 60.102 17.5478 53.5591C17.5478 53.5591 17.1699 52.7378 16.9358 52.2275C13.4141 44.8018 9.98059 37.3266 6.47816 29.8844C6.23476 29.371 5.67255 28.3311 5.67255 28.3311C5.67255 28.3311 6.5899 27.692 7.20623 27.2771C9.81789 25.5142 12.3358 23.6165 14.9281 21.7491L24.1917 45.5773L33.7668 36.3887L22.548 26.6858L22.8403 26.2925C24.7929 27.7584 26.7565 29.2105 28.6924 30.6929C30.6808 32.2221 32.6417 33.787 34.6962 35.4014C44.663 25.0384 55.0186 15.253 65.6638 5.7728L65.9231 6.03406L36.1799 36.804L50.6282 49.9503C60.1344 34.095 67.5419 17.3927 74.0697 0L77.8396 2.85477C79.2185 3.90537 80.5974 4.98621 82.0094 6.00381C82.4171 6.29725 83 6.7169 83 6.7169C83 6.7169 82.6069 7.49764 82.4452 7.86299C76.9317 20.2715 70.5509 32.2785 63.35 43.7952C61.0252 47.5163 58.7472 51.2676 56.37 55.1317C57.5227 56.2318 58.659 57.332 59.831 58.4101C64.1801 62.3815 68.2093 66.6609 71.4332 71.5811C75.3631 77.5932 76.6427 84.1168 74.4668 91.0777C74.0009 92.556 73.2355 93.9231 72.218 95.0943C71.2005 96.2655 69.9526 97.2158 68.5517 97.8862C67.1508 98.5567 65.6267 98.933 64.0739 98.9918C62.5212 99.0507 60.9728 98.7908 59.5249 98.2284C52.3766 95.5166 46.6073 90.8027 41.2957 85.4919C39.6162 83.817 38.0994 81.9881 36.4171 80.1371ZM41.5549 74.6366C45.4435 79.4166 49.1914 84.1553 54.354 87.5298C56.734 89.081 59.2326 89.9803 62.098 89.9336C66.0885 89.8648 68.4409 87.5408 68.3582 83.5667C68.281 80.4562 67.5998 77.4419 66.094 74.7301C63.8106 70.6185 61.4057 66.5618 58.8796 62.5987C57.6137 60.6185 55.937 58.8969 54.3126 56.9002L41.5549 74.6366ZM20.2673 57.1147C15.7086 63.1653 11.947 69.4716 9.64417 76.5316C9.0926 78.2367 8.9409 80.1234 8.89677 81.9331C8.80577 85.6157 11.4423 88.1322 15.146 88.0469C18.029 88.0227 20.7928 86.8965 22.8679 84.9006C24.6605 83.2009 26.3924 81.4325 28.0747 79.6201C29.5308 78.0497 30.8822 76.3803 32.2583 74.7769C32.046 74.4056 31.9274 74.1581 31.7729 73.9325C27.9865 68.3852 24.1917 62.838 20.2783 57.1147H20.2673ZM35.6725 38.0306C35.3919 38.2103 35.1279 38.4146 34.8837 38.6412C32.2197 42.024 29.1157 46.2114 26.5233 49.6355C26.5233 49.6355 26.7844 50.2988 26.8999 50.5333C28.6483 54.0564 30.4106 57.5767 32.3218 61.0173C33.8386 63.7511 35.5677 66.3666 37.4761 69.4854C41.3895 63.9574 45.5369 57.4796 49.2517 52.3201C44.9606 48.0242 40.0023 42.3843 35.6835 38.0306H35.6725Z" fill="var(--fill-0, white)"/>
<path d="M342.837 56.9392L344.855 55.8804C345.367 57.3895 346.236 58.5883 347.463 59.4767C348.689 60.353 350.112 60.7911 351.731 60.7911C353.469 60.7911 354.85 60.3408 355.874 59.4402C356.91 58.5274 357.428 57.3165 357.428 55.8073C357.428 55.0528 357.273 54.3834 356.964 53.7992C356.654 53.2029 356.238 52.7161 355.714 52.3388C355.19 51.9493 354.589 51.6025 353.91 51.2982C353.231 50.9818 352.511 50.6958 351.749 50.4402C350.999 50.1724 350.249 49.9047 349.499 49.6369C348.748 49.357 348.034 49.0284 347.355 48.6511C346.677 48.2617 346.075 47.8236 345.552 47.3367C345.028 46.8378 344.611 46.2171 344.301 45.4747C343.992 44.7201 343.837 43.8682 343.837 42.9189C343.837 40.7769 344.569 39.0913 346.034 37.8621C347.51 36.6207 349.385 36 351.66 36C353.576 36 355.214 36.4564 356.571 37.3692C357.94 38.2698 358.958 39.572 359.625 41.2759L357.66 42.426C356.648 39.6146 354.684 38.209 351.767 38.209C350.136 38.209 348.832 38.6349 347.855 39.4868C346.879 40.3266 346.391 41.4463 346.391 42.8459C346.391 43.5761 346.546 44.2272 346.855 44.7992C347.165 45.3591 347.582 45.8276 348.105 46.2049C348.629 46.57 349.231 46.9047 349.909 47.209C350.6 47.5132 351.32 47.7992 352.07 48.067C352.82 48.3225 353.571 48.5903 354.321 48.8702C355.071 49.1501 355.785 49.4909 356.464 49.8925C357.154 50.282 357.762 50.7262 358.285 51.2252C358.809 51.7242 359.226 52.357 359.536 53.1238C359.845 53.8905 360 54.7607 360 55.7343C360 57.9372 359.238 59.7019 357.714 61.0284C356.19 62.3428 354.196 63 351.731 63C349.552 63 347.677 62.4524 346.105 61.357C344.545 60.2617 343.456 58.7891 342.837 56.9392Z" fill="var(--fill-0, white)"/>
<path d="M326.924 62.5802H319.173V36.4017H326.924C329.436 36.4017 331.698 36.9615 333.711 38.0812C335.735 39.2008 337.318 40.7587 338.461 42.7546C339.604 44.7505 340.176 46.996 340.176 49.4909C340.176 51.9858 339.604 54.2313 338.461 56.2272C337.318 58.2232 335.735 59.781 333.711 60.9006C331.698 62.0203 329.436 62.5802 326.924 62.5802ZM321.691 60.2252H326.96C328.948 60.2252 330.758 59.7627 332.389 58.8378C334.02 57.9006 335.3 56.6106 336.229 54.9676C337.169 53.3246 337.64 51.499 337.64 49.4909C337.64 47.4706 337.169 45.639 336.229 43.996C335.3 42.3408 334.02 41.0507 332.389 40.1258C330.758 39.1887 328.948 38.7201 326.96 38.7201H321.691V60.2252Z" fill="var(--fill-0, white)"/>
<path d="M291.74 62.5802V36.4017H293.562L310.475 57.6511V36.4017H312.958V62.5802H311.172L294.259 41.3124V62.5802H291.74Z" fill="var(--fill-0, white)"/>
<path d="M267.451 62.5802H264.665L275.56 36.4017H277.828L288.686 62.5802H285.954L283.096 55.6248H270.255L267.451 62.5802ZM276.703 39.925L271.095 53.5619H282.257L276.703 39.925Z" fill="var(--fill-0, white)"/>
<path d="M248.609 62.5802H246.091V36.4017H254.717C256.92 36.4017 258.807 37.1501 260.379 38.6471C261.95 40.1319 262.736 41.9148 262.736 43.996C262.736 45.858 262.165 47.4889 261.022 48.8885C259.879 50.2759 258.414 51.1765 256.628 51.5903L264.237 62.5802H261.343L253.985 51.8094H248.609V62.5802ZM248.609 38.7201V49.6369H254.717C256.241 49.6369 257.545 49.1136 258.629 48.067C259.712 47.0203 260.254 45.712 260.254 44.142C260.254 42.6816 259.706 41.4159 258.611 40.3449C257.515 39.2617 256.218 38.7201 254.717 38.7201H248.609Z" fill="var(--fill-0, white)"/>
<path d="M234.625 62.5802H224.374V36.4017H234.179C236.036 36.4017 237.608 37.0345 238.894 38.3002C240.191 39.566 240.84 41.1298 240.84 42.9919C240.84 44.2333 240.525 45.3834 239.894 46.4422C239.263 47.4889 238.441 48.2678 237.429 48.7789C238.739 49.2536 239.799 50.0994 240.608 51.3165C241.418 52.5335 241.823 53.9088 241.823 55.4422C241.823 57.4382 241.12 59.1298 239.715 60.5173C238.322 61.8925 236.626 62.5802 234.625 62.5802ZM234.214 50.0203H226.892V60.2617H234.214C235.631 60.2617 236.84 59.7566 237.84 58.7465C238.84 57.7242 239.34 56.495 239.34 55.0589C239.34 53.6106 238.84 52.4118 237.84 51.4625C236.852 50.501 235.643 50.0203 234.214 50.0203ZM226.892 47.7384H233.857C235.131 47.7384 236.209 47.3185 237.09 46.4787C237.983 45.639 238.429 44.5862 238.429 43.3205C238.429 42.0426 237.983 40.9595 237.09 40.071C236.197 39.1704 235.119 38.7201 233.857 38.7201H226.892V47.7384Z" fill="var(--fill-0, white)"/>
<path d="M196.941 62.5802V36.4017H198.763L215.676 57.6511V36.4017H218.159V62.5802H216.373L199.46 41.3124V62.5802H196.941Z" fill="var(--fill-0, white)"/>
<path d="M190.708 36.4017V62.5802H188.19V36.4017H190.708Z" fill="var(--fill-0, white)"/>
<path d="M164.276 36.4017H184.065V38.7201H175.438V62.5802H172.92V38.7201H164.276V36.4017Z" fill="var(--fill-0, white)"/>
<path d="M145.238 56.9392L147.256 55.8804C147.768 57.3895 148.637 58.5883 149.863 59.4767C151.09 60.353 152.512 60.7911 154.132 60.7911C155.87 60.7911 157.251 60.3408 158.275 59.4402C159.311 58.5274 159.829 57.3165 159.829 55.8073C159.829 55.0528 159.674 54.3834 159.365 53.7992C159.055 53.2029 158.638 52.7161 158.114 52.3388C157.591 51.9493 156.989 51.6025 156.311 51.2982C155.632 50.9818 154.912 50.6958 154.15 50.4402C153.4 50.1724 152.649 49.9047 151.899 49.6369C151.149 49.357 150.435 49.0284 149.756 48.6511C149.077 48.2617 148.476 47.8236 147.952 47.3367C147.428 46.8378 147.012 46.2171 146.702 45.4747C146.393 44.7201 146.238 43.8682 146.238 42.9189C146.238 40.7769 146.97 39.0913 148.435 37.8621C149.911 36.6207 151.786 36 154.06 36C155.977 36 157.614 36.4564 158.972 37.3692C160.341 38.2698 161.359 39.572 162.026 41.2759L160.061 42.426C159.049 39.6146 157.085 38.209 154.167 38.209C152.536 38.209 151.233 38.6349 150.256 39.4868C149.28 40.3266 148.792 41.4463 148.792 42.8459C148.792 43.5761 148.947 44.2272 149.256 44.7992C149.566 45.3591 149.982 45.8276 150.506 46.2049C151.03 46.57 151.631 46.9047 152.31 47.209C153.001 47.5132 153.721 47.7992 154.471 48.067C155.221 48.3225 155.971 48.5903 156.721 48.8702C157.472 49.1501 158.186 49.4909 158.865 49.8925C159.555 50.282 160.162 50.7262 160.686 51.2252C161.21 51.7242 161.627 52.357 161.936 53.1238C162.246 53.8905 162.401 54.7607 162.401 55.7343C162.401 57.9372 161.639 59.7019 160.115 61.0284C158.591 62.3428 156.596 63 154.132 63C151.953 63 150.078 62.4524 148.506 61.357C146.946 60.2617 145.857 58.7891 145.238 56.9392Z" fill="var(--fill-0, white)"/>
<path d="M127.717 62.5802V36.4017H142.273V38.7201H130.236V47.9574H141.809V50.2394H130.236V60.2617H142.452V62.5802H127.717Z" fill="var(--fill-0, white)"/>
<path d="M116.251 62.5802H106V36.4017H115.805C117.662 36.4017 119.234 37.0345 120.52 38.3002C121.818 39.566 122.467 41.1298 122.467 42.9919C122.467 44.2333 122.151 45.3834 121.52 46.4422C120.889 47.4889 120.067 48.2678 119.055 48.7789C120.365 49.2536 121.425 50.0994 122.234 51.3165C123.044 52.5335 123.449 53.9088 123.449 55.4422C123.449 57.4382 122.746 59.1298 121.341 60.5173C119.948 61.8925 118.252 62.5802 116.251 62.5802ZM115.841 50.0203H108.518V60.2617H115.841C117.258 60.2617 118.466 59.7566 119.466 58.7465C120.466 57.7242 120.966 56.495 120.966 55.0589C120.966 53.6106 120.466 52.4118 119.466 51.4625C118.478 50.501 117.269 50.0203 115.841 50.0203ZM108.518 47.7384H115.483C116.757 47.7384 117.835 47.3185 118.716 46.4787C119.609 45.639 120.056 44.5862 120.056 43.3205C120.056 42.0426 119.609 40.9595 118.716 40.071C117.823 39.1704 116.746 38.7201 115.483 38.7201H108.518V47.7384Z" fill="var(--fill-0, white)"/>
</g>
</svg>
