<svg preserveAspectRatio="none" width="100%" height="100%" overflow="visible" style="display: block;" viewBox="0 0 40 40" fill="none" xmlns="http://www.w3.org/2000/svg">
<g id="icon">
<rect width="40" height="40" rx="20" fill="var(--fill-0, white)" fill-opacity="0.12"/>
<path id="Vector" d="M20.0019 15.6912C17.6206 15.6837 15.6856 17.6113 15.6781 19.9925C15.6706 22.3738 17.5981 24.3087 19.9794 24.3162C22.3606 24.3237 24.2956 22.3962 24.3031 20.015C24.3106 17.6337 22.3831 15.6987 20.0019 15.6912ZM19.9794 17.2062C21.5244 17.1987 22.7806 18.4475 22.7881 19.9925C22.7956 21.5375 21.5469 22.7937 20.0019 22.8012C18.4569 22.8087 17.2006 21.56 17.1931 20.015C17.1856 18.47 18.4344 17.2137 19.9794 17.2062ZM23.4819 15.515C23.4819 14.96 23.9319 14.51 24.4869 14.51C25.0419 14.51 25.4919 14.96 25.4919 15.515C25.4919 16.07 25.0419 16.52 24.4869 16.52C23.9319 16.52 23.4819 16.07 23.4819 15.515ZM28.3456 16.535C28.2819 15.1887 27.9744 13.9962 26.9881 13.0137C26.0056 12.0312 24.8131 11.7237 23.4669 11.6562C22.0794 11.5775 17.9206 11.5775 16.5331 11.6562C15.1906 11.72 13.9981 12.0275 13.0119 13.01C12.0256 13.9925 11.7219 15.185 11.6544 16.5312C11.5756 17.9187 11.5756 22.0775 11.6544 23.465C11.7181 24.8112 12.0256 26.0038 13.0119 26.9863C13.9981 27.9688 15.1869 28.2763 16.5331 28.3438C17.9206 28.4225 22.0794 28.4225 23.4669 28.3438C24.8131 28.28 26.0056 27.9725 26.9881 26.9863C27.9706 26.0038 28.2781 24.8112 28.3456 23.465C28.4244 22.0775 28.4244 17.9225 28.3456 16.535ZM26.5531 24.9537C26.2606 25.6887 25.6944 26.255 24.9556 26.5512C23.8494 26.99 21.2244 26.8887 20.0019 26.8887C18.7794 26.8887 16.1506 26.9862 15.0481 26.5512C14.3131 26.2587 13.7469 25.6925 13.4506 24.9537C13.0119 23.8475 13.1131 21.2225 13.1131 20C13.1131 18.7775 13.0156 16.1487 13.4506 15.0462C13.7431 14.3112 14.3094 13.745 15.0481 13.4487C16.1544 13.01 18.7794 13.1112 20.0019 13.1112C21.2244 13.1112 23.8531 13.0137 24.9556 13.4487C25.6906 13.7412 26.2569 14.3075 26.5531 15.0462C26.9919 16.1525 26.8906 18.7775 26.8906 20C26.8906 21.2225 26.9919 23.8512 26.5531 24.9537Z" fill="var(--fill-0, white)"/>
</g>
</svg>
