<svg preserveAspectRatio="none" width="100%" height="100%" overflow="visible" style="display: block;" viewBox="0 0 40 40" fill="none" xmlns="http://www.w3.org/2000/svg">
<g id="icon">
<rect width="40" height="40" rx="20" fill="var(--fill-0, white)" fill-opacity="0.12"/>
<path id="Vector" d="M15.3613 28.4H11.8775V17.1837H15.3613V28.4ZM13.6175 15.6538C12.5038 15.6538 11.6 14.7313 11.6 13.6175C11.6 13.0813 11.8138 12.5713 12.1925 12.1925C12.5713 11.8138 13.085 11.6 13.6175 11.6C14.15 11.6 14.6638 11.8138 15.0425 12.1925C15.4213 12.5713 15.635 13.085 15.635 13.6175C15.635 14.7313 14.7313 15.6538 13.6175 15.6538ZM28.3963 28.4H24.92V22.94C24.92 21.6387 24.8937 19.97 23.1087 19.97C21.2975 19.97 21.02 21.3837 21.02 22.8462V28.4H17.54V17.1837H20.8812V18.7137H20.93C21.395 17.8325 22.5313 16.9025 24.2263 16.9025C27.7512 16.9025 28.4 19.2238 28.4 22.2388V28.4H28.3963Z" fill="var(--fill-0, white)"/>
</g>
</svg>
