<svg preserveAspectRatio="none" width="100%" height="100%" overflow="visible" style="display: block;" viewBox="0 0 40 40" fill="none" xmlns="http://www.w3.org/2000/svg">
<g id="icon">
<rect width="40" height="40" rx="20" fill="var(--fill-0, white)" fill-opacity="0.12"/>
<path id="Vector" d="M29.81 15.0538C29.5775 14.165 28.88 13.4675 27.9987 13.2313C26.405 12.8 20 12.8 20 12.8C20 12.8 13.595 12.8 11.9975 13.2313C11.1162 13.4675 10.4225 14.165 10.1862 15.0538C9.75875 16.6625 9.75875 20.015 9.75875 20.015C9.75875 20.015 9.75875 23.3675 10.1862 24.9762C10.4225 25.8612 11.1162 26.5325 11.9975 26.7687C13.595 27.2 20 27.2 20 27.2C20 27.2 26.405 27.2 28.0025 26.7687C28.8837 26.5325 29.5775 25.8612 29.8137 24.9762C30.2412 23.3675 30.2412 20.015 30.2412 20.015C30.2412 20.015 30.2412 16.6625 29.8137 15.0538H29.81ZM17.9037 23.06V16.97L23.255 20.015L17.9037 23.06Z" fill="var(--fill-0, white)"/>
</g>
</svg>
